<svg id="Слой_1" data-name="Слой 1" xmlns="http://www.w3.org/2000/svg" viewBox="0 0 574.56 139.63"><defs><style>.cls-1{fill:#3f6144;}.cls-2{fill:#fff;}</style></defs><title>logo</title><path class="cls-1" d="M566.39,351.16H553.78l-525.55.63-18.11,0v18s0,0,0,0l.13,103a18,18,0,0,0,18.12,18h6.09l532.1-.66,18.09,0,0-18-.1-86.13,0-16.9a18,18,0,0,0-18.14-18" transform="translate(-10.12 -351.16)"/><path class="cls-2" d="M64.06,397.81c4.3,0,7.08-.85,8.55-2.57s2.09-5,2.09-10.19-.68-8.51-2.1-10.2-4.22-2.57-8.51-2.56-7.1.84-8.56,2.55-2.11,5-2.11,10.24.7,8.48,2.12,10.18,4.24,2.56,8.52,2.56m-5.33-20.26c.33-.51,1.49-1.35,5.35-1.35,3.56,0,4.83.73,5.29,1.35s1.07,2.51,1.08,7.5-.57,6.78-1.07,7.47-1.72,1.35-5.29,1.36-4.86-.72-5.33-1.35-1.06-2.51-1.08-7.47.57-6.86,1.05-7.52" transform="translate(-10.12 -351.16)"/><path class="cls-2" d="M99.93,395.71c1.22-1.19,1.85-3.11,1.85-5.69s-.62-4.6-1.85-5.82-3.16-1.81-6-1.81H87v-6H99.85v-3.94l-17.1,0,0,25.06H94c2.74,0,4.67-.61,5.89-1.81m-6.43-9.32c2.18,0,3,.41,3.27.67s.72,1.07.72,3-.35,2.5-.64,2.83-1,.69-3,.7l-6.85,0v-7.16Z" transform="translate(-10.12 -351.16)"/><polygon class="cls-2" points="100.04 32.29 103.73 32.28 104.24 21.27 99.55 21.29 100.04 32.29"/><path class="cls-2" d="M132.1,397.72c4.06,0,6.72-.61,8.12-1.83s2-3.25,2-6.44v-.81H138v.82c0,2.46-.56,3.27-.86,3.54s-1.52.79-5,.79c-3.21,0-4.39-.67-4.81-1.21s-.93-1.85-1-5.94l11.9,0v-3.92l-11.9,0c.07-3.35.66-4.75,1.11-5.31.75-.86,2.4-1.31,4.78-1.31,3,0,4.08.5,4.43.78s.83,1,1.09,3.38l.08.72h4.09v-.82c0-3-.75-5.19-2.23-6.32s-3.9-1.63-7.57-1.63c-4,0-6.64.83-8,2.54s-2,5.13-2,10.3.65,8.46,2,10.13,4.05,2.54,8.17,2.54" transform="translate(-10.12 -351.16)"/><path class="cls-2" d="M170.42,372.37l-17.55,0,0,12.91a20.39,20.39,0,0,1-.51,4.73,12.8,12.8,0,0,1-1.48,3.5h-1.8v9.29h4v-5.37l15,0,0,5.37h4v-9.29h-1.68Zm-4.23,4,0,17.16-10.55,0a12.67,12.67,0,0,0,1-2.92,27.37,27.37,0,0,0,.44-5.66v-8.59Z" transform="translate(-10.12 -351.16)"/><polygon class="cls-2" points="173.86 35.49 185.89 35.47 185.91 46.24 190.15 46.24 190.11 21.23 185.88 21.24 185.89 31.54 173.86 31.57 173.85 21.26 169.62 21.26 169.65 46.26 173.88 46.26 173.86 35.49"/><path class="cls-2" d="M216.65,372.31l-9.08,25.07h4.53l1.88-4.8h10.66l1.76,4.8h4.53l-9.36-25Zm-1.46,16.33,4-11.15,4,11.14Z" transform="translate(-10.12 -351.16)"/><polygon class="cls-2" points="232.13 35.41 244.17 35.4 244.19 46.17 248.43 46.16 248.39 21.17 244.15 21.18 244.17 31.47 232.13 31.49 232.12 21.2 227.89 21.2 227.93 46.19 232.16 46.18 232.13 35.41"/><polygon class="cls-2" points="273.75 31.43 261.73 31.46 261.72 21.15 257.49 21.16 257.52 46.16 261.75 46.14 261.75 35.37 273.76 35.36 273.77 46.13 278.02 46.13 277.98 21.13 273.74 21.13 273.75 31.43"/><path class="cls-2" d="M300.7,397.27l5.21-9.34h5.94v9.33h4.24l0-25.06-11.21,0c-2.71,0-4.78.63-6.16,1.84s-2.12,3.21-2.14,5.85a8.41,8.41,0,0,0,1.66,5.3,6.67,6.67,0,0,0,3.13,2.11l-5.71,10Zm3.63-21.08,7.5,0V384h-6.24c-4.26,0-4.77-2-4.77-3.57a5.3,5.3,0,0,1,.79-3.32,3.27,3.27,0,0,1,2.71-.93" transform="translate(-10.12 -351.16)"/><path class="cls-2" d="M85.89,451.72c0,4.08-.72,6.89-2.11,8.1-1,.88-3.56,1.95-9.9,1.95-4.95,0-8.16-1-9.6-3-1.08-1.47-2.36-5.22-2.37-14.75s1.27-13.37,2.38-14.92C65.77,427.05,69,426,73.81,426c6.41,0,8.57,1.14,9.28,1.86.55.52,1.56,2.19,2.11,7.49l.14,1.47,8.24.1v-1.67c0-6.21-1.31-10.45-3.92-13-2.93-2.81-8.1-4.17-15.87-4.16-7.93,0-13.22,1.73-16.1,5.29S53.32,433.8,53.33,444s1.5,17.05,4.51,20.61c2.83,3.36,8.08,5,16,5s13.08-1.29,16-3.92,4.37-7.26,4.37-14v-1.64H85.89Z" transform="translate(-10.12 -351.16)"/><path class="cls-2" d="M122.74,418.48l-18.35,50.64h9.16l3.76-9.73,21.58,0,3.54,9.72h9.13l-18.88-50.58Zm-3,33,8.06-22.59L136,451.47Z" transform="translate(-10.12 -351.16)"/><polygon class="cls-2" points="181.65 105.15 166.04 67.26 154.53 67.28 154.59 117.88 163.1 117.87 163.06 81.4 178.34 117.85 185.1 117.85 200.16 81.04 200.21 117.83 208.72 117.81 208.66 67.21 197.28 67.22 181.65 105.15"/><path class="cls-2" d="M255.75,417.88c-8.7,0-14.38,1.7-17.29,5.17s-4.27,10.14-4.26,20.66,1.42,17.15,4.29,20.55,8.56,5.16,17.2,5.16,14.29-1.71,17.23-5.17,4.26-10.13,4.24-20.6-1.41-17.18-4.26-20.59-8.52-5.19-17.15-5.18m10.71,40.89c-.9,1.25-3.5,2.76-10.72,2.76s-9.85-1.48-10.75-2.72-2.18-5.08-2.19-15.12,1.11-13.88,2.08-15.23c.7-1,3-2.68,10.82-2.69,7.23,0,9.83,1.46,10.72,2.71s2.16,5.1,2.17,15.19-1.15,13.73-2.12,15.11" transform="translate(-10.12 -351.16)"/><polygon class="cls-2" points="281.71 117.73 290.23 117.71 290.2 75.27 314.52 75.23 314.57 117.69 323.1 117.69 323.04 67.2 281.66 67.25 281.71 117.73"/><path class="cls-2" d="M369.68,417.74c-8.7,0-14.36,1.71-17.31,5.17s-4.25,10.15-4.23,20.66,1.42,17.15,4.29,20.55,8.58,5.18,17.19,5.16,14.31-1.7,17.24-5.16,4.27-10.15,4.26-20.6-1.41-17.2-4.27-20.6-8.54-5.19-17.16-5.18m10.7,40.89c-.89,1.25-3.48,2.75-10.71,2.78s-9.84-1.49-10.75-2.72-2.18-5.08-2.2-15.13,1.12-13.88,2.07-15.22c.72-1,3.06-2.69,10.82-2.7,7.25,0,9.82,1.46,10.73,2.7s2.15,5.11,2.17,15.19-1.17,13.73-2.14,15.11" transform="translate(-10.12 -351.16)"/><polygon class="cls-2" points="423.07 104.86 407.47 66.97 395.96 66.99 396.02 117.59 404.54 117.58 404.5 81.11 419.78 117.57 426.51 117.55 441.58 80.73 441.63 117.53 450.14 117.52 450.09 66.92 438.72 66.94 423.07 104.86"/><polygon class="cls-2" points="466.82 117.51 475.4 117.49 475.33 67.02 466.76 67.02 466.82 117.51"/><path class="cls-2" d="M530.92,418l0,21a25.22,25.22,0,0,1-3.39.41c-1.76.1-4,.17-6.51.16h-1.44c-5.69,0-7.68-.71-8.34-1.14-1.79-1.12-2.15-4.27-2.15-6.72l0-13.71-8.5,0,0,12.72c0,6.55,1.21,10.89,3.73,13.26s7.06,3.47,14,3.47c2.1,0,4.5,0,7.18-.14a36.36,36.36,0,0,0,5.42-.54l0,21.81,8.51,0L539.45,418Z" transform="translate(-10.12 -351.16)"/></svg>